<!DOCTYPE svg PUBLIC "-//W3C//DTD SVG 1.1//EN" "http://www.w3.org/Graphics/SVG/1.1/DTD/svg11.dtd">
<!-- Uploaded to: SVG Repo, www.svgrepo.com, Transformed by: SVG Repo Mixer Tools -->
<svg width="800px" height="800px" viewBox="0 0 24 24" fill="none" xmlns="http://www.w3.org/2000/svg">
<g id="SVGRepo_bgCarrier" stroke-width="0"/>
<g id="SVGRepo_tracerCarrier" stroke-linecap="round" stroke-linejoin="round"/>
<g id="SVGRepo_iconCarrier"> <path d="M12 21C10.22 21 8.47991 20.4722 6.99987 19.4832C5.51983 18.4943 4.36628 17.0887 3.68509 15.4442C3.0039 13.7996 2.82567 11.99 3.17294 10.2442C3.5202 8.49836 4.37737 6.89472 5.63604 5.63604C6.89472 4.37737 8.49836 3.5202 10.2442 3.17294C11.99 2.82567 13.7996 3.0039 15.4442 3.68509C17.0887 4.36628 18.4943 5.51983 19.4832 6.99987C20.4722 8.47991 21 10.22 21 12C21 14.387 20.0518 16.6761 18.364 18.364C16.6761 20.0518 14.387 21 12 21ZM12 4.5C10.5166 4.5 9.0666 4.93987 7.83323 5.76398C6.59986 6.58809 5.63856 7.75943 5.07091 9.12988C4.50325 10.5003 4.35473 12.0083 4.64411 13.4632C4.9335 14.918 5.64781 16.2544 6.6967 17.3033C7.7456 18.3522 9.08197 19.0665 10.5368 19.3559C11.9917 19.6453 13.4997 19.4968 14.8701 18.9291C16.2406 18.3614 17.4119 17.4001 18.236 16.1668C19.0601 14.9334 19.5 13.4834 19.5 12C19.5 10.0109 18.7098 8.10323 17.3033 6.6967C15.8968 5.29018 13.9891 4.5 12 4.5Z" fill="#5A4FFF"/> <path d="M16 14.75C15.9015 14.7505 15.8038 14.7313 15.7128 14.6935C15.6218 14.6557 15.5393 14.6001 15.47 14.53L12 11.06L8.53003 14.53C8.38785 14.6625 8.19981 14.7346 8.00551 14.7312C7.81121 14.7278 7.62582 14.649 7.48841 14.5116C7.35099 14.3742 7.27228 14.1888 7.26885 13.9945C7.26543 13.8002 7.33755 13.6122 7.47003 13.47L11.47 9.47001C11.6107 9.32956 11.8013 9.25067 12 9.25067C12.1988 9.25067 12.3894 9.32956 12.53 9.47001L16.53 13.47C16.6705 13.6106 16.7494 13.8013 16.7494 14C16.7494 14.1988 16.6705 14.3894 16.53 14.53C16.4608 14.6001 16.3782 14.6557 16.2872 14.6935C16.1962 14.7313 16.0986 14.7505 16 14.75Z" fill="#5A4FFF"/> </g>
</svg>