<?xml version="1.0" encoding="UTF-8"?>
<!DOCTYPE svg PUBLIC "-//W3C//DTD SVG 1.1//EN" "http://www.w3.org/Graphics/SVG/1.1/DTD/svg11.dtd">
<svg xmlns="http://www.w3.org/2000/svg" version="1.1" width="32px" height="32px" style="shape-rendering:geometricPrecision; text-rendering:geometricPrecision; image-rendering:optimizeQuality; fill-rule:evenodd; clip-rule:evenodd" xmlns:xlink="http://www.w3.org/1999/xlink">
<g><path style="opacity:0.786" fill="#594fff" d="M 9.5,-0.5 C 13.5,-0.5 17.5,-0.5 21.5,-0.5C 25.8333,1.83333 29.1667,5.16667 31.5,9.5C 31.5,13.5 31.5,17.5 31.5,21.5C 29.1667,25.8333 25.8333,29.1667 21.5,31.5C 17.5,31.5 13.5,31.5 9.5,31.5C 5.16667,29.1667 1.83333,25.8333 -0.5,21.5C -0.5,17.5 -0.5,13.5 -0.5,9.5C 1.83333,5.16667 5.16667,1.83333 9.5,-0.5 Z M 12.5,2.5 C 25.0662,2.97356 29.8995,9.30689 27,21.5C 21.037,29.4376 14.037,30.4376 6,24.5C 0.218721,14.6852 2.38539,7.35186 12.5,2.5 Z"/></g>
<g><path style="opacity:0.819" fill="#594fff" d="M 14.5,8.5 C 18.067,10.5566 21.2337,13.2232 24,16.5C 24.5,18.6667 23.6667,19.5 21.5,19C 19.6499,16.9824 17.6499,15.1491 15.5,13.5C 13.3501,15.1491 11.3501,16.9824 9.5,19C 7.33333,19.5 6.5,18.6667 7,16.5C 9.70497,13.9638 12.205,11.2971 14.5,8.5 Z"/></g>
</svg>
