<?xml version="1.0" encoding="UTF-8"?>
<!DOCTYPE svg PUBLIC "-//W3C//DTD SVG 1.1//EN" "http://www.w3.org/Graphics/SVG/1.1/DTD/svg11.dtd">
<svg xmlns="http://www.w3.org/2000/svg" version="1.1" width="64px" height="64px" style="shape-rendering:geometricPrecision; text-rendering:geometricPrecision; image-rendering:optimizeQuality; fill-rule:evenodd; clip-rule:evenodd" xmlns:xlink="http://www.w3.org/1999/xlink">
<g><path style="opacity:0.943" fill="#6b62ff" d="M 23.5,8.5 C 28.8437,8.33398 34.1771,8.50065 39.5,9C 42.2956,10.4186 44.2956,12.5853 45.5,15.5C 51.0335,16.8661 54.8668,20.1994 57,25.5C 57.6667,32.1667 57.6667,38.8333 57,45.5C 55.9392,48.5616 54.1059,51.0616 51.5,53C 39.2376,54.6057 26.9043,54.939 14.5,54C 10.3592,52.5259 7.52586,49.6926 6,45.5C 5.33333,38.8333 5.33333,32.1667 6,25.5C 8.1332,20.1994 11.9665,16.8661 17.5,15.5C 18.8334,12.5067 20.8334,10.1734 23.5,8.5 Z M 27.5,24.5 C 37.4921,23.3271 41.9921,27.6604 41,37.5C 34.6667,46.8333 28.3333,46.8333 22,37.5C 20.5708,31.7001 22.4041,27.3668 27.5,24.5 Z M 45.5,24.5 C 46.8333,24.5 48.1667,24.5 49.5,24.5C 49.7778,26.3464 49.1112,27.6798 47.5,28.5C 45.8888,27.6798 45.2222,26.3464 45.5,24.5 Z"/></g>
<g><path style="opacity:0.876" fill="#6b61ff" d="M 28.5,28.5 C 36.3391,28.2027 38.6724,31.536 35.5,38.5C 25.7343,40.2963 23.4009,36.9629 28.5,28.5 Z"/></g>
</svg>
