<?xml version="1.0" encoding="UTF-8"?>
<!DOCTYPE svg PUBLIC "-//W3C//DTD SVG 1.1//EN" "http://www.w3.org/Graphics/SVG/1.1/DTD/svg11.dtd">
<svg xmlns="http://www.w3.org/2000/svg" version="1.1" width="64px" height="64px" style="shape-rendering:geometricPrecision; text-rendering:geometricPrecision; image-rendering:optimizeQuality; fill-rule:evenodd; clip-rule:evenodd" xmlns:xlink="http://www.w3.org/1999/xlink">
<g><path style="opacity:0.945" fill="#6b61ff" d="M 14.5,4.5 C 25.8382,4.33348 37.1716,4.50014 48.5,5C 53.6667,6.16667 56.8333,9.33333 58,14.5C 58.6667,25.8333 58.6667,37.1667 58,48.5C 56.8333,53.6667 53.6667,56.8333 48.5,58C 37.1667,58.6667 25.8333,58.6667 14.5,58C 9.33333,56.8333 6.16667,53.6667 5,48.5C 4.33333,37.1667 4.33333,25.8333 5,14.5C 6.3499,9.31928 9.51656,5.98594 14.5,4.5 Z M 17.5,10.5 C 26.5062,10.3336 35.5062,10.5002 44.5,11C 49.3333,11.1667 51.8333,13.6667 52,18.5C 52.4988,22.4862 52.6655,26.4862 52.5,30.5C 47.9186,29.9231 43.7519,30.9231 40,33.5C 36.7391,30.7839 33.5724,27.9506 30.5,25C 23.3537,21.0898 16.8537,21.9231 11,27.5C 10.3041,23.0946 10.6374,18.7612 12,14.5C 13.4562,12.5347 15.2895,11.2013 17.5,10.5 Z"/></g>
<g><path style="opacity:0.888" fill="#6c61ff" d="M 38.5,15.5 C 47.4867,14.665 49.8201,18.165 45.5,26C 36.8017,26.7726 34.4684,23.2726 38.5,15.5 Z"/></g>
</svg>
