<?xml version="1.0" encoding="UTF-8"?>
<!DOCTYPE svg PUBLIC "-//W3C//DTD SVG 1.1//EN" "http://www.w3.org/Graphics/SVG/1.1/DTD/svg11.dtd">
<svg xmlns="http://www.w3.org/2000/svg" version="1.1" width="32px" height="32px" style="shape-rendering:geometricPrecision; text-rendering:geometricPrecision; image-rendering:optimizeQuality; fill-rule:evenodd; clip-rule:evenodd" xmlns:xlink="http://www.w3.org/1999/xlink">
<g><path style="opacity:0.83" fill="#5a4fff" d="M 31.5,1.5 C 31.5,3.16667 31.5,4.83333 31.5,6.5C 20.8333,6.5 10.1667,6.5 -0.5,6.5C -0.5,4.83333 -0.5,3.16667 -0.5,1.5C 10.1667,0.166667 20.8333,0.166667 31.5,1.5 Z"/></g>
<g><path style="opacity:0.83" fill="#5a4fff" d="M 31.5,13.5 C 31.5,14.8333 31.5,16.1667 31.5,17.5C 20.8333,18.8333 10.1667,18.8333 -0.5,17.5C -0.5,16.1667 -0.5,14.8333 -0.5,13.5C 10.1667,12.1667 20.8333,12.1667 31.5,13.5 Z"/></g>
<g><path style="opacity:0.838" fill="#594eff" d="M -0.5,24.5 C 10.1667,24.5 20.8333,24.5 31.5,24.5C 31.5,26.1667 31.5,27.8333 31.5,29.5C 20.8333,30.8333 10.1667,30.8333 -0.5,29.5C -0.5,27.8333 -0.5,26.1667 -0.5,24.5 Z"/></g>
</svg>
